 <svg version="1.0" xmlns="http://www.w3.org/2000/svg"  width="768.000000pt" height="768.000000pt" viewBox="0 0 768.000000 768.000000"  preserveAspectRatio="xMidYMid meet">  <g transform="translate(0.000000,768.000000) scale(0.100000,-0.100000)" fill="#000000" stroke="none"> <path d="M3802 7283 c-6 -15 -27 -55 -46 -88 -20 -33 -40 -69 -46 -80 -6 -11 -19 -34 -29 -51 -10 -17 -30 -51 -43 -75 -21 -39 -48 -85 -85 -144 -7 -11 -23 -40 -36 -65 -12 -25 -34 -63 -48 -85 -14 -22 -40 -65 -56 -95 -38 -68 -120 -210 -133 -230 -6 -8 -15 -24 -20 -35 -6 -11 -19 -33 -30 -50 -10 -16 -31 -52 -45 -80 -35 -67 -49 -90 -62 -106 -6 -8 -27 -45 -48 -84 -21 -38 -48 -84 -61 -102 -13 -17 -24 -38 -24 -46 0 -18 -42 -57 -62 -57 -9 0 -21 -7 -28 -15 -7 -8 -18 -15 -25 -15 -6 0 -32 -11 -56 -25 -24 -13 -53 -29 -64 -35 -11 -6 -33 -19 -50 -30 -16 -11 -37 -23 -45 -27 -13 -5 -79 -52 -115 -81 -5 -4 -39 -30 -75 -56 -146 -110 -374 -366 -478 -537 -20 -33 -45 -72 -54 -87 -10 -15 -24 -43 -33 -62 -9 -19 -32 -69 -52 -110 -48 -99 -71 -157 -93 -235 -5 -16 -18 -61 -30 -100 -52 -179 -74 -388 -68 -645 l5 -174 -44 -76 c-24 -41 -48 -82 -53 -90 -6 -8 -13 -22 -17 -30 -4 -8 -24 -44 -46 -79 -21 -35 -43 -74 -48 -85 -5 -12 -22 -41 -37 -66 -15 -25 -56 -96 -92 -158 -36 -62 -73 -125 -82 -140 -10 -15 -22 -36 -27 -48 -8 -19 -77 -137 -101 -174 -6 -8 -13 -22 -17 -30 -3 -8 -25 -46 -48 -85 -23 -38 -57 -97 -75 -130 -18 -33 -45 -78 -59 -100 -14 -22 -32 -51 -39 -65 -7 -14 -27 -48 -43 -76 -16 -28 -26 -54 -22 -57 3 -4 390 -7 859 -7 l852 0 48 -35 c27 -19 60 -40 73 -45 13 -6 38 -21 55 -33 39 -28 55 -37 146 -82 41 -20 87 -43 102 -51 14 -8 31 -14 37 -14 6 0 40 -13 74 -30 35 -16 73 -30 83 -30 10 -1 30 -7 44 -15 14 -8 36 -14 50 -15 13 0 42 -6 65 -14 59 -20 144 -36 285 -51 256 -29 512 -13 760 47 25 6 61 14 80 18 44 10 97 28 133 46 16 8 37 14 47 14 9 0 23 7 30 15 7 8 22 15 34 15 11 0 30 7 40 15 11 8 27 15 37 15 9 0 22 7 29 15 7 8 19 15 26 15 8 0 48 20 88 45 41 25 78 45 81 45 4 0 24 14 45 30 21 17 41 30 45 30 3 0 21 11 39 25 l33 25 861 0 c604 0 862 3 862 11 0 6 -11 25 -24 42 -13 18 -34 52 -48 77 -13 25 -36 64 -51 87 -15 24 -27 45 -27 47 0 3 -22 43 -49 88 -53 91 -82 142 -116 203 -11 22 -33 58 -47 80 -13 22 -40 67 -58 100 -18 33 -38 67 -44 75 -6 8 -21 33 -33 55 -11 22 -30 56 -42 75 -11 19 -25 44 -31 55 -6 11 -19 34 -30 50 -11 17 -23 37 -27 45 -7 15 -85 151 -103 180 -5 8 -18 32 -29 52 -11 21 -33 57 -48 80 -50 77 -51 82 -45 265 7 233 -12 420 -65 628 -8 33 -21 75 -29 93 -8 18 -14 39 -14 47 0 8 -6 29 -14 47 -8 18 -22 53 -31 78 -28 70 -133 279 -165 327 -17 24 -30 46 -30 49 0 9 -153 209 -194 253 -53 56 -142 145 -197 197 -54 49 -198 158 -221 167 -10 3 -18 11 -18 17 0 5 -6 10 -13 10 -8 0 -32 12 -54 28 -66 46 -81 54 -208 113 -41 19 -85 60 -85 80 0 4 -13 27 -29 51 -15 24 -43 70 -61 103 -18 33 -44 77 -57 98 -13 21 -28 48 -34 60 -5 12 -18 36 -29 52 -11 17 -23 37 -27 45 -4 8 -24 44 -46 79 -21 35 -43 74 -48 85 -11 23 -21 40 -62 103 -15 24 -27 45 -27 48 0 4 -81 146 -100 175 -6 8 -13 22 -17 30 -7 16 -117 206 -133 230 -6 8 -13 22 -17 30 -4 8 -18 33 -32 55 -13 22 -41 72 -61 110 -42 80 -70 95 -88 48z m59 -165 c16 -37 62 -120 92 -165 15 -24 27 -45 27 -47 0 -2 26 -49 58 -103 32 -54 61 -105 65 -113 4 -8 11 -22 17 -30 22 -35 130 -221 130 -225 0 -3 12 -24 27 -48 29 -44 32 -49 77 -132 15 -27 36 -63 47 -80 10 -16 23 -39 29 -50 20 -37 75 -133 103 -180 16 -26 26 -49 23 -52 -5 -6 -52 5 -111 25 -94 33 -301 72 -378 72 l-58 0 3 -117 3 -118 70 -6 c39 -4 88 -11 110 -17 22 -6 78 -20 125 -31 47 -12 110 -30 140 -42 30 -12 67 -23 82 -26 15 -3 33 -11 39 -19 6 -8 21 -14 33 -14 12 0 27 -5 32 -10 6 -6 44 -27 85 -48 41 -20 107 -60 147 -87 41 -28 84 -56 96 -62 21 -11 131 -105 222 -189 61 -56 186 -210 247 -304 85 -130 81 -124 131 -225 46 -92 61 -131 98 -245 11 -36 26 -81 33 -100 33 -91 65 -342 65 -505 0 -112 -19 -295 -40 -395 -23 -106 -84 -297 -117 -365 -19 -38 -14 -69 11 -73 10 -2 48 -24 83 -48 35 -24 72 -44 82 -44 21 0 63 90 111 240 16 52 37 115 45 140 8 25 15 64 15 87 0 23 4 44 9 47 17 11 41 -6 48 -32 3 -14 17 -42 31 -61 13 -20 28 -45 33 -56 5 -11 13 -27 19 -35 16 -24 130 -221 130 -225 0 -2 27 -49 60 -104 33 -56 60 -104 60 -106 0 -3 12 -24 27 -48 41 -62 46 -71 73 -124 14 -26 36 -64 49 -83 12 -19 27 -44 32 -55 5 -11 13 -27 19 -35 51 -79 150 -257 150 -272 0 -17 -32 -18 -707 -20 -390 -2 -714 -1 -720 1 -7 2 -13 6 -13 10 0 4 51 59 113 122 124 127 188 200 199 230 4 10 11 19 16 19 5 0 15 11 22 25 12 22 11 27 -6 40 -10 9 -28 20 -39 25 -11 6 -33 19 -50 30 -16 10 -45 27 -64 37 l-35 17 -20 -29 c-58 -79 -181 -217 -247 -277 -84 -75 -283 -228 -298 -228 -5 0 -16 -6 -23 -13 -7 -6 -47 -29 -88 -50 -41 -21 -82 -42 -90 -46 -59 -31 -210 -87 -270 -101 -19 -4 -48 -12 -65 -18 -210 -70 -654 -81 -875 -22 -25 6 -72 19 -105 27 -112 30 -251 80 -318 115 -200 103 -194 100 -269 155 -31 24 -60 43 -65 43 -33 0 -349 318 -403 404 -25 42 -40 44 -83 14 -35 -25 -62 -42 -92 -57 -61 -31 -66 -53 -22 -101 12 -14 29 -35 37 -46 41 -59 154 -180 244 -261 46 -42 57 -63 34 -63 -275 -4 -1425 3 -1431 9 -9 9 3 35 43 96 11 17 24 39 30 50 6 11 26 47 45 80 19 33 40 69 45 80 6 11 19 34 30 50 11 17 23 37 27 45 4 8 34 62 68 120 123 209 146 250 204 355 19 33 39 67 45 75 12 16 17 25 61 106 14 27 35 63 45 79 10 17 28 49 40 73 26 51 43 50 51 -4 5 -36 14 -69 41 -149 5 -16 13 -43 18 -60 12 -43 29 -90 66 -180 25 -63 37 -81 55 -83 13 -2 26 3 31 12 5 9 16 16 24 16 8 0 33 14 56 30 22 17 47 30 53 30 28 0 28 32 0 95 -21 49 -42 106 -60 170 -10 33 -24 77 -31 98 -8 20 -14 48 -14 61 0 14 -8 53 -17 88 -25 92 -25 564 0 654 9 34 17 75 17 90 0 16 7 42 15 58 8 15 15 36 15 45 0 9 12 48 26 86 14 39 29 83 34 98 8 26 117 248 143 292 80 134 249 339 364 440 87 77 188 155 202 155 6 0 11 5 11 10 0 6 10 15 23 20 12 6 36 19 52 30 17 11 39 24 50 30 11 5 28 14 38 20 34 20 53 29 97 50 25 12 58 28 73 35 16 8 35 15 42 15 7 0 26 6 42 14 15 8 55 22 88 31 33 9 74 21 90 25 93 26 176 43 239 49 l71 6 0 115 0 115 -50 3 c-84 6 -432 -69 -469 -100 -6 -4 -14 -8 -18 -8 -12 0 -10 38 3 45 5 4 14 17 20 28 5 12 23 45 39 72 17 28 37 64 45 80 9 17 24 44 35 60 11 17 24 39 30 50 5 11 14 27 20 35 29 45 130 223 130 229 0 5 13 26 28 47 15 21 38 59 51 84 25 48 33 63 71 125 14 23 30 50 37 60 7 11 22 40 35 65 12 25 34 63 49 85 15 22 42 69 60 105 18 36 37 71 42 78 15 19 36 14 48 -10z"/> <path d="M3680 5279 c-87 -11 -212 -36 -255 -50 -16 -6 -43 -15 -60 -19 -55 -16 -112 -39 -146 -59 -19 -12 -41 -24 -49 -27 -8 -3 -19 -8 -25 -10 -5 -2 -23 -13 -40 -24 -16 -11 -39 -24 -50 -30 -59 -30 -156 -108 -248 -198 -160 -156 -308 -397 -356 -577 -5 -16 -13 -41 -19 -55 -20 -50 -42 -168 -52 -285 -12 -142 6 -366 40 -480 12 -38 25 -83 29 -100 29 -107 134 -303 227 -425 84 -112 300 -309 374 -343 8 -4 29 -16 45 -27 17 -11 37 -22 45 -26 8 -3 22 -9 30 -14 17 -10 90 -45 135 -64 74 -32 240 -72 351 -85 232 -28 546 11 697 85 16 8 37 14 47 14 9 0 23 7 30 15 7 8 20 15 30 15 10 0 23 7 30 15 7 8 19 15 27 15 7 0 26 8 41 19 15 10 61 40 102 67 74 48 276 240 338 320 42 55 143 228 166 284 10 25 24 59 31 75 34 81 63 185 75 265 19 129 30 266 25 315 -25 225 -42 311 -86 425 -11 30 -24 66 -29 80 -8 24 -58 124 -83 165 -85 140 -129 196 -237 306 -87 87 -235 202 -297 228 -11 6 -24 15 -28 20 -3 6 -13 11 -22 11 -9 0 -24 6 -32 13 -9 7 -36 21 -61 31 -25 10 -58 24 -75 30 -31 13 -101 34 -190 57 -112 28 -359 43 -475 28z m343 -84 c106 -16 188 -37 245 -61 18 -8 39 -14 47 -14 7 0 26 -6 42 -14 15 -8 61 -31 102 -51 86 -43 205 -123 276 -186 92 -82 235 -243 235 -264 0 -4 13 -24 28 -44 49 -63 130 -241 160 -351 68 -248 70 -515 7 -736 -8 -28 -15 -56 -15 -63 0 -7 -7 -29 -16 -49 -8 -21 -21 -50 -28 -67 -71 -164 -196 -346 -317 -460 -70 -66 -230 -188 -269 -204 -14 -6 -32 -15 -40 -20 -8 -5 -22 -12 -30 -15 -8 -3 -22 -10 -30 -14 -24 -14 -83 -40 -105 -46 -11 -2 -47 -15 -80 -27 -33 -12 -80 -25 -105 -29 -25 -5 -72 -13 -105 -19 -176 -32 -518 3 -637 65 -14 8 -34 14 -43 14 -9 0 -29 6 -43 14 -15 8 -60 30 -101 51 -117 58 -229 141 -331 244 -162 163 -221 251 -318 471 -58 130 -96 332 -96 505 -1 303 98 595 283 840 76 101 259 275 289 275 6 0 15 6 19 13 21 35 203 131 333 176 214 75 433 97 643 66z"/> <path d="M3655 5006 c-44 -7 -85 -15 -92 -19 -6 -4 -31 -11 -55 -16 -95 -20 -209 -72 -328 -150 -111 -72 -313 -272 -343 -341 -4 -8 -16 -28 -27 -45 -95 -148 -169 -412 -169 -605 -1 -68 22 -251 33 -268 4 -6 10 -30 15 -54 35 -166 187 -421 323 -543 67 -60 109 -95 115 -95 3 0 22 -12 42 -27 49 -38 66 -48 137 -83 127 -61 218 -87 414 -120 109 -18 296 -2 405 36 23 8 48 14 57 14 10 0 34 7 55 16 21 9 52 22 68 29 268 115 492 335 616 605 50 109 96 285 79 305 -7 8 -92 11 -322 9 -172 -1 -316 -2 -320 -3 -3 -1 -16 -22 -29 -48 -47 -99 -147 -205 -246 -260 -99 -56 -304 -72 -415 -33 -70 25 -147 65 -170 89 -9 11 -25 25 -35 33 -22 15 -103 122 -121 158 -79 163 -67 367 31 525 100 162 268 255 462 255 143 0 271 -51 373 -151 58 -56 121 -148 137 -198 6 -21 7 -21 333 -19 l327 3 -3 45 c-2 25 -10 60 -18 79 -8 18 -14 42 -14 52 0 21 -17 62 -67 164 -56 115 -86 162 -151 240 -61 72 -201 205 -217 205 -4 0 -24 12 -44 28 -62 47 -180 108 -236 123 -16 4 -45 12 -62 18 -83 28 -103 33 -183 46 -99 17 -241 17 -355 1z"/> </g> </svg> 