<svg xmlns="http://www.w3.org/2000/svg" xml:space="preserve" width="655.359" height="655.359" style="shape-rendering:geometricPrecision;text-rendering:geometricPrecision;image-rendering:optimizeQuality;fill-rule:evenodd;clip-rule:evenodd" viewBox="0 0 6.827 6.827"><defs><style>.fil1{fill:#fffffe}</style></defs><path style="fill:#424242" d="M0 0h6.827v6.827H0z"/><g id="Layer_x0020_1"><g id="_501802424"><path id="_501802256" class="fil1" d="M1.101.853h4.625c.136 0 .247.112.247.248v4.625a.248.248 0 0 1-.247.247H1.1a.248.248 0 0 1-.248-.247V1.1c0-.136.112-.248.248-.248zm.232.534h4.16v2.335H4.8v.859h-.533v.859H2.56v-.86h-.533v-.858h-.694V1.387z"/><path id="_501801992" class="fil1" d="M1.888 1.813h.747v1.28h-.747z"/><path id="_501802472" class="fil1" d="M3.04 1.813h.747v1.28H3.04z"/><path id="_501802448" class="fil1" d="M4.192 1.813h.747v1.28h-.747z"/></g></g></svg>