 <svg version="1.0" xmlns="http://www.w3.org/2000/svg"  width="184.000000pt" height="184.000000pt" viewBox="0 0 184.000000 184.000000"  preserveAspectRatio="xMidYMid meet">  <g transform="translate(0.000000,184.000000) scale(0.100000,-0.100000)" fill="#000000" stroke="none"> <path d="M1366 1766 c-140 -75 -124 -72 -511 -86 -215 -7 -271 -12 -325 -29 -160 -50 -243 -154 -277 -349 -16 -92 -13 -217 7 -284 16 -56 70 -128 121 -163 27 -18 124 -59 225 -94 574 -200 564 -194 564 -285 -1 -99 -61 -179 -143 -191 -66 -9 -217 33 -312 88 -44 25 -93 49 -108 53 -17 4 -32 16 -37 30 -5 13 -16 24 -24 24 -18 0 -26 22 -19 49 5 19 1 21 -39 21 -43 0 -45 -1 -40 -25 6 -33 -38 -74 -106 -98 -28 -9 -79 -34 -114 -53 -35 -20 -81 -43 -103 -50 -52 -19 -75 -41 -75 -74 0 -25 -33 -192 -46 -233 -5 -17 19 -18 578 -15 643 4 636 4 740 70 126 80 199 244 200 448 0 126 -25 194 -96 265 -73 73 -72 73 -621 266 -203 71 -225 93 -206 201 15 88 38 121 91 135 58 15 310 17 310 2 0 -6 28 -10 78 -9 117 3 167 -11 295 -78 65 -34 122 -62 127 -62 4 0 79 46 166 103 l157 102 -79 3 c-76 3 -82 1 -160 -40 l-82 -42 -71 47 c-62 41 -70 50 -61 67 13 24 13 86 0 109 -11 21 -2 30 79 81 l53 33 84 -41 c78 -39 90 -42 166 -42 l82 0 -95 61 c-52 34 -124 81 -161 105 -37 24 -73 44 -80 44 -7 0 -67 -29 -132 -64z m269 -38 l126 -83 -45 -3 c-37 -3 -60 5 -130 41 l-85 44 -73 -48 -73 -49 -30 29 c-16 16 -36 30 -42 32 -13 4 192 117 214 118 7 1 69 -36 138 -81z m-319 -90 c29 -29 36 -44 40 -89 6 -63 -15 -107 -68 -139 -36 -22 -98 -26 -129 -10 -17 10 -19 22 -19 140 0 146 -4 141 88 136 46 -2 58 -8 88 -38z m-196 -103 l0 -135 -50 0 -50 0 0 135 0 135 50 0 50 0 0 -135z m-260 0 c0 -22 -4 -25 -39 -25 -35 0 -38 2 -33 25 4 21 10 25 38 25 30 0 34 -3 34 -25z m-276 -21 c9 -23 9 -22 -25 -40 -26 -13 -33 -14 -40 -2 -12 19 -6 31 22 45 31 16 36 16 43 -3z m840 -119 c36 -25 70 -45 76 -45 5 0 46 18 89 40 60 31 90 40 127 40 l49 0 -129 -85 c-72 -47 -134 -85 -138 -85 -5 0 -58 27 -119 59 -86 45 -107 60 -92 65 11 4 30 18 43 31 13 14 25 25 27 25 2 0 32 -20 67 -45z m-978 -127 c-3 -13 -6 -29 -6 -35 0 -7 -9 -13 -20 -13 -16 0 -20 7 -20 35 0 31 3 35 26 35 22 0 25 -3 20 -22z m70 -257 c20 -16 21 -21 10 -36 -12 -17 -14 -17 -39 0 -26 17 -34 35 -20 48 11 11 23 8 49 -12z m253 -104 c27 -12 29 -15 18 -31 -9 -13 -20 -16 -40 -11 -32 8 -39 17 -31 39 7 19 13 20 53 3z m274 -94 c19 -6 21 -12 8 -32 -12 -19 -71 -5 -71 18 0 24 11 33 29 25 9 -3 24 -9 34 -11z m247 -118 c21 -23 22 -27 9 -40 -13 -14 -18 -13 -37 8 -14 15 -20 30 -16 40 8 23 16 21 44 -8z m-778 -192 c2 -30 7 -37 20 -35 11 2 20 -6 24 -22 4 -16 15 -26 36 -30 16 -3 69 -29 116 -57 64 -38 109 -56 171 -69 107 -24 134 -47 135 -117 l1 -48 -48 -6 c-46 -5 -49 -3 -63 23 -8 16 -30 36 -49 45 -33 16 -37 16 -70 0 -19 -9 -41 -30 -50 -47 l-16 -30 -179 0 c-180 0 -180 0 -185 23 -8 29 -53 57 -94 57 -31 0 -81 -37 -81 -60 0 -14 -96 -13 -107 2 -6 7 -8 43 -5 80 l4 68 142 69 c77 38 156 72 174 76 17 4 32 12 32 20 0 7 9 15 20 18 15 4 20 14 20 41 0 31 3 36 24 36 21 0 25 -5 28 -37z m853 -80 c-8 -46 -8 -46 -35 -38 -14 4 -19 12 -16 22 3 8 6 23 6 34 0 14 7 19 26 19 25 0 26 -2 19 -37z m-126 -217 c11 -13 6 -19 -46 -50 -7 -4 -16 2 -23 13 -9 17 -6 23 17 35 35 19 38 19 52 2z m-925 -57 c52 -41 20 -119 -50 -119 -59 0 -87 78 -42 120 28 26 58 26 92 -1z m556 1 c41 -41 8 -120 -51 -120 -32 0 -69 41 -69 76 0 33 34 64 70 64 17 0 39 -9 50 -20z"/> <path d="M385 398 c-45 -12 -145 -72 -145 -88 0 -5 24 -10 53 -11 28 0 81 -1 117 -2 l65 -2 -3 35 c-7 85 -10 88 -87 68z m65 -25 c0 -10 3 -28 6 -40 6 -23 5 -23 -86 -23 -107 0 -112 10 -31 52 62 33 111 37 111 11z"/> <path d="M496 402 c-3 -5 -2 -30 2 -58 l7 -49 108 -3 c68 -2 107 1 107 8 0 19 -95 79 -151 94 -64 18 -66 19 -73 8z m87 -26 c37 -14 107 -56 107 -66 0 -4 -162 -1 -167 4 0 0 -4 18 -8 39 -8 43 2 46 68 23z"/> <path d="M240 125 c-26 -32 13 -81 48 -59 23 15 26 38 7 58 -20 20 -39 20 -55 1z"/> <path d="M790 125 c-26 -32 13 -81 48 -59 22 14 27 41 12 59 -16 19 -44 19 -60 0z"/> </g> </svg> 